<svg width="25" height="27" viewBox="0 0 25 27" fill="none" xmlns="http://www.w3.org/2000/svg">
<path fill-rule="evenodd" clip-rule="evenodd" d="M21.1112 22.1633C21.4047 21.7964 21.94 21.7369 22.3068 22.0304L22.562 22.2346C22.9289 22.528 22.9884 23.0633 22.6949 23.4302C22.4014 23.797 21.8661 23.8565 21.4993 23.563L21.2441 23.3589C20.8772 23.0654 20.8178 22.5301 21.1112 22.1633Z" fill="url(#paint0_linear_545_618)"/>
<path fill-rule="evenodd" clip-rule="evenodd" d="M3.34384 22.1633C3.05037 21.7964 2.51508 21.7369 2.14823 22.0304L1.89305 22.2346C1.5262 22.528 1.46673 23.0633 1.7602 23.4302C2.05367 23.797 2.58897 23.8565 2.95581 23.563L3.211 23.3589C3.57784 23.0654 3.63732 22.5301 3.34384 22.1633Z" fill="url(#paint1_linear_545_618)"/>
<path fill-rule="evenodd" clip-rule="evenodd" d="M21.8713 0.172646L21.8619 0.170997C21.4656 0.102085 21.0629 0.0776145 20.6613 0.0980383C20.3737 0.112658 20.0878 0.150226 19.8063 0.210385L19.2207 0.335505C19.2153 0.336668 19.2099 0.338097 19.2046 0.339788L19.1653 0.352316C18.3935 0.598396 17.712 1.06773 17.2068 1.70101L17.151 1.771C16.8902 2.09786 16.6886 2.46777 16.5552 2.86404C16.4874 3.06558 16.4376 3.27275 16.4064 3.48311L16.349 3.87073L16.349 3.87084C16.2716 4.38877 16.4788 4.90829 16.8913 5.23092L19.1933 7.03147C19.3862 7.18233 19.6225 7.26119 19.8624 7.25965C19.7106 7.48169 19.6758 7.77561 19.7965 8.03769C19.9792 8.43455 20.4491 8.60814 20.8459 8.42541L23.2107 7.33661C23.6075 7.15389 23.7811 6.68404 23.5984 6.28718C23.4157 5.89033 22.9458 5.71674 22.549 5.89946L21.0071 6.60939L21.2756 6.37694C21.7165 5.99514 22.0882 5.54017 22.3745 5.03203L22.4627 4.87544C22.8135 4.25278 23.0314 3.56412 23.1025 2.85298C23.1361 2.51716 23.1367 2.17886 23.1043 1.84292L23.0833 1.62539L23.0824 1.61765L23.0399 1.31994C23.039 1.31391 23.0378 1.30793 23.0363 1.30203L22.9828 1.0917C22.9326 0.894532 22.8324 0.713637 22.6919 0.566471L22.6667 0.540068C22.55 0.417775 22.4051 0.325892 22.2447 0.272429C22.2415 0.27136 22.2383 0.270386 22.235 0.26951L21.8863 0.175941C21.8813 0.174619 21.8764 0.17352 21.8713 0.172646Z" fill="url(#paint2_linear_545_618)"/>
<path fill-rule="evenodd" clip-rule="evenodd" d="M2.59742 0.166542L2.6069 0.164893C3.00314 0.0959819 3.40583 0.071511 3.8075 0.0919348C4.09502 0.106555 4.38092 0.144123 4.66246 0.204281L5.24802 0.329401C5.25346 0.330564 5.25885 0.331994 5.26415 0.333685L5.30344 0.346213C6.07524 0.592293 6.75678 1.06162 7.26194 1.6949L7.31777 1.7649C7.5785 2.09176 7.78012 2.46167 7.91351 2.85793C7.98136 3.05948 8.03116 3.26665 8.06232 3.47701L8.11975 3.86463L8.11976 3.86473C8.19712 4.38266 7.98998 4.90218 7.57749 5.22481L5.27545 7.02536C5.08255 7.17624 4.84621 7.25511 4.60628 7.25355C4.7581 7.47558 4.79284 7.76952 4.67216 8.03161C4.48944 8.42847 4.01959 8.60206 3.62274 8.41933L1.25799 7.33053C0.861135 7.1478 0.687547 6.67796 0.870273 6.2811C1.053 5.88424 1.52284 5.71066 1.9197 5.89338L3.46178 6.60341L3.1932 6.37083C2.75229 5.98904 2.38052 5.53407 2.09424 5.02592L2.00603 4.86934C1.65523 4.24667 1.43739 3.55802 1.36628 2.84688C1.3327 2.51106 1.33209 2.17276 1.36447 1.83682L1.38544 1.61929L1.38636 1.61155L1.42889 1.31383C1.42975 1.3078 1.43094 1.30183 1.43244 1.29592L1.48598 1.08559C1.53617 0.888429 1.63633 0.707533 1.77681 0.560367L1.80201 0.533965C1.91875 0.411671 2.06362 0.319788 2.22401 0.266326C2.22722 0.265256 2.23046 0.264283 2.23373 0.263406L2.58248 0.169837C2.58741 0.168516 2.59239 0.167416 2.59742 0.166542Z" fill="url(#paint3_linear_545_618)"/>
<path fill-rule="evenodd" clip-rule="evenodd" d="M2.72965 1.37619C2.66291 1.44233 2.66243 1.55005 2.72856 1.61678L6.48833 5.41058C6.55447 5.47732 6.66219 5.4778 6.72893 5.41166C6.79566 5.34552 6.79615 5.23781 6.73001 5.17107L2.97024 1.37728C2.9041 1.31054 2.79638 1.31005 2.72965 1.37619Z" fill="#11962F" fill-opacity="0.48"/>
<path fill-rule="evenodd" clip-rule="evenodd" d="M21.7264 1.37619C21.7931 1.44233 21.7936 1.55005 21.7275 1.61678L17.9677 5.41058C17.9016 5.47732 17.7939 5.4778 17.7271 5.41166C17.6604 5.34552 17.6599 5.23781 17.726 5.17107L21.4858 1.37728C21.552 1.31054 21.6597 1.31005 21.7264 1.37619Z" fill="#11962F" fill-opacity="0.48"/>
<path fill-rule="evenodd" clip-rule="evenodd" d="M15.2639 4.98835C14.2335 4.56649 13.1275 4.36033 12.0142 4.38259C11.0234 4.40241 10.0446 4.60282 9.1257 4.97399L8.93449 5.05123C7.82626 5.49888 6.81509 6.15667 5.95668 6.98835L5.73706 7.20113C5.20017 7.72131 4.73411 8.30993 4.35093 8.95181L4.32166 9.00085C3.68518 10.067 3.29715 11.2629 3.18639 12.4997L3.1684 12.7006C3.07057 13.7931 3.21776 14.8936 3.59924 15.9219C4.08265 17.0805 3.98057 16.8934 4.27829 17.4123V17.4123C4.43095 17.6384 4.60789 17.8472 4.80597 18.0349L5.15444 18.365C6.13605 19.1694 9.00313 21.3564 10.2055 21.7625C10.4948 21.8603 10.6501 22.174 10.5524 22.4633C10.4546 22.7526 10.1409 22.9079 9.85159 22.8102C8.52293 22.3614 7.28638 21.676 6.20164 20.7872L5.13737 19.915C3.9742 18.9619 3.08551 17.7165 2.56247 16.3065C2.12376 15.1239 1.95449 13.8583 2.06699 12.602L2.08499 12.4011C2.21056 10.9988 2.65052 9.64287 3.37216 8.43403L3.40144 8.38499C3.83439 7.65974 4.36097 6.99467 4.9676 6.40693L5.18721 6.19415C6.14805 5.26324 7.27987 4.52697 8.52032 4.0259L8.71153 3.94866C9.75512 3.52712 10.8669 3.2995 11.9921 3.277C13.2565 3.25171 14.5126 3.48586 15.6829 3.96498L16.0643 4.12111C17.2871 4.62175 18.4036 5.35044 19.3542 6.26832L19.4406 6.35175C20.162 7.04842 20.7705 7.85327 21.2441 8.73733L21.2642 8.77474C21.9386 10.0336 22.3194 11.4288 22.3782 12.8557L22.3827 12.965C22.434 14.2094 22.225 15.4508 21.7691 16.6098C21.2987 17.8054 20.5764 18.8858 19.6512 19.7774L19.3273 20.0896C18.188 21.1876 16.8255 22.0272 15.3325 22.5513L14.6009 22.8081C14.3128 22.9092 13.9972 22.7576 13.8961 22.4695C13.7949 22.1814 13.9465 21.8658 14.2346 21.7647L14.9662 21.5079C16.3093 21.0364 16.2551 19.2326 16.9952 19.4453L17.8689 19.1166C18.5167 18.8729 19.1122 18.5082 19.6236 18.0417V18.0417C19.9128 17.7781 20.3278 17.2529 20.74 16.205C21.1396 15.1892 21.3228 14.1012 21.2779 13.0106L21.2734 12.9012C21.2214 11.641 20.885 10.4088 20.2894 9.29695L20.2694 9.25954C19.85 8.47675 19.3112 7.76409 18.6724 7.14723L18.586 7.0638C17.7364 6.24334 16.7384 5.59199 15.6453 5.14449L15.2639 4.98835Z" fill="url(#paint4_linear_545_618)"/>
<path fill-rule="evenodd" clip-rule="evenodd" d="M20.952 17.8735C21.1084 17.851 21.2679 17.8544 21.4242 17.884L21.6952 17.9354C21.8495 17.9646 22.0007 18.0083 22.1468 18.0658L22.2921 18.123C22.6034 18.2455 22.8989 18.4051 23.172 18.5983L23.4751 18.8127L23.4826 18.8183L23.7293 19.0139C23.7336 19.0173 23.7377 19.0209 23.7416 19.0248L23.8835 19.1616C23.9906 19.2648 24.0265 19.4216 23.9751 19.5612C23.959 19.6049 23.9349 19.6452 23.9041 19.68L23.734 19.8724C23.73 19.8768 23.7259 19.8811 23.7215 19.8851L23.5173 20.0722C23.5131 20.0761 23.5087 20.0797 23.5042 20.0831L23.1297 20.3626C22.97 20.4819 22.8012 20.5887 22.6251 20.6821C22.3108 20.8487 21.9751 20.9714 21.6274 21.0467L21.4915 21.0762C21.2269 21.1335 20.958 21.1688 20.6875 21.1817L20.5439 21.1885C20.5385 21.1888 20.5332 21.1888 20.5278 21.1885L20.3937 21.1822C20.1026 21.1686 19.8162 21.1048 19.5468 20.9937L19.5199 20.9826C19.3238 20.9017 19.1397 20.7943 18.9727 20.6634L18.9536 20.6532C19.2268 20.8831 19.4589 21.1594 19.6385 21.4705C19.721 21.6135 19.7919 21.7629 19.8505 21.9172L19.9002 22.048C19.985 22.2713 20.0509 22.5013 20.0972 22.7356C20.1511 23.0081 20.1782 23.2854 20.1782 23.5632V23.7217C20.1782 23.9529 20.1593 24.1838 20.1217 24.412L20.0712 24.7182C20.054 24.8228 20.0253 24.9252 19.9856 25.0235L19.888 25.265C19.8584 25.3385 19.8101 25.4029 19.748 25.4521C19.6076 25.5633 19.4152 25.5821 19.2559 25.5003L18.7905 25.2613L18.7818 25.2565L18.6391 25.1723C18.2523 24.9439 17.8973 24.6656 17.5832 24.3445L17.5414 24.3018C17.363 24.1193 17.2006 23.9217 17.0563 23.7113L16.9805 23.6008C16.8283 23.3789 16.7035 23.1394 16.609 22.8874L16.5987 22.8598C16.5392 22.7011 16.4933 22.5375 16.4616 22.371L16.411 22.1057C16.0609 22.2721 15.7014 22.4201 15.334 22.5491L14.6024 22.8059C14.3143 22.907 13.9987 22.7555 13.8976 22.4673C13.7964 22.1792 13.948 21.8636 14.2361 21.7625L14.9677 21.5057C15.6252 21.2749 16.3148 20.5806 16.9342 19.9568C17.5801 19.3064 18.1499 18.7327 18.5276 18.8412L19.5459 18.2889C19.9811 18.0528 20.4604 17.9117 20.952 17.8735Z" fill="url(#paint5_diamond_545_618)"/>
<path fill-rule="evenodd" clip-rule="evenodd" d="M3.48779 17.8734C3.33174 17.8511 3.1725 17.8544 3.01649 17.884L2.74545 17.9354C2.59117 17.9646 2.43998 18.0083 2.29386 18.0658L2.14856 18.123C1.83725 18.2455 1.54183 18.4051 1.26869 18.5983L0.965583 18.8127L0.958109 18.8183L0.711428 19.0139C0.707131 19.0173 0.703001 19.0209 0.699053 19.0248L0.557161 19.1616C0.450078 19.2648 0.414145 19.4216 0.465572 19.5612C0.481663 19.6049 0.505744 19.6452 0.536585 19.68L0.706732 19.8724C0.710663 19.8768 0.714824 19.8811 0.719197 19.8851L0.923348 20.0722C0.927559 20.0761 0.931961 20.0797 0.936538 20.0831L1.31096 20.3626C1.47074 20.4819 1.63946 20.5887 1.81563 20.6821C2.12993 20.8487 2.46562 20.9714 2.81329 21.0467L2.94924 21.0762C3.21383 21.1335 3.48273 21.1688 3.75315 21.1817L3.89683 21.1885C3.90218 21.1888 3.90753 21.1888 3.91288 21.1885L4.04702 21.1822C4.33805 21.1686 4.62454 21.1048 4.89387 20.9937L4.92076 20.9826C5.1169 20.9017 5.30103 20.7943 5.46798 20.6634L5.48713 20.6532C5.21387 20.8831 4.98181 21.1594 4.80221 21.4705C4.71967 21.6135 4.64876 21.7629 4.59015 21.9172L4.54047 22.048C4.45569 22.2713 4.3898 22.5013 4.34349 22.7356C4.2896 23.0081 4.26247 23.2853 4.26247 23.5632V23.7217C4.26247 23.9529 4.28137 24.1838 4.31898 24.412L4.36944 24.7182C4.38669 24.8228 4.41542 24.9252 4.45512 25.0235L4.55267 25.265C4.58233 25.3385 4.63058 25.4029 4.69268 25.4521C4.8331 25.5633 5.02553 25.5821 5.18484 25.5003L5.65014 25.2613L5.65892 25.2565L5.80159 25.1723C6.1884 24.9439 6.54342 24.6656 6.85749 24.3445L6.89926 24.3018C7.07772 24.1193 7.24005 23.9217 7.38444 23.7113L7.46018 23.6008C7.61243 23.3789 7.73716 23.1394 7.83166 22.8874L7.84198 22.8598C7.90152 22.7011 7.9474 22.5375 7.97912 22.371L8.02963 22.1058C8.37975 22.2721 8.73914 22.4201 9.10643 22.549L9.83803 22.8058C10.1262 22.907 10.4417 22.7554 10.5429 22.4673C10.644 22.1791 10.4924 21.8636 10.2043 21.7624L9.4727 21.5056C8.8152 21.2748 8.12567 20.5805 7.50621 19.9567C6.86028 19.3063 6.29055 18.7326 5.91278 18.8411L4.89454 18.2888C4.45912 18.0526 3.97966 17.9115 3.48779 17.8734Z" fill="url(#paint6_diamond_545_618)"/>
<path fill-rule="evenodd" clip-rule="evenodd" d="M9.25521 7.2943C10.1581 6.84407 11.1531 6.60972 12.162 6.60972C12.857 6.60972 13.5475 6.72095 14.2074 6.93918L14.311 6.97345C14.901 7.1686 15.4633 7.4394 15.9837 7.77909L16.1857 7.91098C16.8456 8.34173 17.4258 8.88376 17.9003 9.51292C18.5835 10.4187 19.0295 11.4808 19.1979 12.6027L19.2131 12.7034C19.3493 13.6108 19.2965 14.5365 19.0579 15.4225C18.8238 16.2922 18.4158 17.1044 17.8597 17.8106L13.3483 8.28993C13.2107 7.9996 12.9656 7.77418 12.6648 7.66137L12.6351 7.65023C12.3363 7.5382 12.0047 7.5538 11.7178 7.69338C11.4805 7.80883 11.2895 8.00154 11.1761 8.23987L6.61238 17.8379C6.14364 17.2162 5.78 16.5195 5.53799 15.7754L5.51678 15.7102C5.18765 14.6982 5.10032 13.6232 5.2618 12.5715C5.44383 11.3859 5.93587 10.2694 6.68812 9.33512L6.73793 9.27326C7.37939 8.47656 8.18535 7.8278 9.10069 7.37135L9.25521 7.2943ZM7.66365 18.9548C8.16435 19.3823 8.7234 19.7382 9.32493 20.0114L10.2055 20.4113C10.5648 20.5745 10.7238 20.998 10.5606 21.3573C10.3975 21.7166 9.97392 21.8756 9.61461 21.7124L8.73404 21.3126C7.75303 20.867 6.86597 20.2386 6.12038 19.4608C5.23732 18.5396 4.57369 17.4309 4.17901 16.2174L4.1578 16.1522C3.75958 14.9278 3.65392 13.6272 3.8493 12.3546C4.06953 10.9201 4.66486 9.56931 5.57502 8.43891L5.62483 8.37704C6.39535 7.42006 7.36346 6.64078 8.46296 6.09249L8.61747 6.01543C9.7184 5.46643 10.9318 5.18066 12.162 5.18066C13.0095 5.18066 13.8515 5.3163 14.6561 5.58241L14.7598 5.61668C15.467 5.8506 16.141 6.17522 16.7648 6.58241L16.9669 6.71431C17.7652 7.23545 18.4671 7.89121 19.0412 8.6524C19.8677 9.74823 20.4074 11.0332 20.6112 12.3906L20.6263 12.4913C20.7917 13.5934 20.7276 14.7178 20.4378 15.794C20.125 16.9558 19.5569 18.0332 18.7749 18.9476L18.752 18.9744L18.7494 18.9774C17.8053 20.069 16.6254 20.9318 15.2989 21.5004L14.7898 21.7186C14.4271 21.8741 14.007 21.7061 13.8516 21.3434C13.6961 20.9807 13.8641 20.5606 14.2268 20.4051L14.7359 20.1869C15.4858 19.8655 16.1806 19.4334 16.7979 18.9071L16.0898 17.4127H8.39694L7.66365 18.9548ZM12.9607 10.8092L15.4126 15.9836H9.07644L11.5316 10.8201L11.5316 14.4611C11.5316 14.8557 11.8515 15.1756 12.2462 15.1756C12.6408 15.1756 12.9607 14.8557 12.9607 14.4611V10.8092ZM12.9271 18.5609C12.9271 18.1663 12.6072 17.8464 12.2126 17.8464C11.818 17.8464 11.4981 18.1663 11.4981 18.5609V23.1203C11.4981 23.5149 11.818 23.8348 12.2126 23.8348C12.6072 23.8348 12.9271 23.5149 12.9271 23.1203V18.5609Z" fill="#F6EDE3"/>
<path fill-rule="evenodd" clip-rule="evenodd" d="M20.5427 19.3434C20.5492 19.3427 20.8 19.3264 20.8064 19.3264L22.6268 19.3349C22.7207 19.3349 22.7969 19.4111 22.7969 19.505C22.7969 19.599 22.7207 19.6752 22.6268 19.6752H20.7651L20.1834 19.7416C20.0692 19.7604 19.8535 19.7941 19.6598 19.8232C19.5617 19.838 19.4687 19.8516 19.3969 19.8616C19.3611 19.8666 19.33 19.8708 19.306 19.8737C19.2876 19.876 19.2601 19.8793 19.2413 19.8793C19.2413 19.8793 19.0967 19.8538 19.0967 19.7092C19.0967 19.5646 19.2413 19.5391 19.2413 19.5391C19.2393 19.5391 19.2381 19.5391 19.2381 19.539C19.2381 19.5389 19.2453 19.5384 19.2645 19.536C19.2859 19.5334 19.3149 19.5295 19.3499 19.5246C19.4199 19.5149 19.5116 19.5014 19.6092 19.4867C19.8045 19.4574 20.0214 19.4235 20.1323 19.4052C20.1351 19.4048 20.1379 19.4044 20.1406 19.4041L20.5427 19.3434Z" fill="#11962F" fill-opacity="0.48"/>
<path fill-rule="evenodd" clip-rule="evenodd" d="M3.71962 19.3361C3.71321 19.3353 3.70676 19.335 3.7003 19.335H1.82892C1.73497 19.335 1.6588 19.4111 1.6588 19.5051C1.6588 19.599 1.73497 19.6752 1.82892 19.6752H3.69061L4.27227 19.7417C4.38648 19.7604 4.60217 19.7941 4.79593 19.8232C4.89403 19.838 4.98706 19.8516 5.05879 19.8616C5.09457 19.8666 5.12568 19.8708 5.14972 19.8738C5.1681 19.876 5.19559 19.8794 5.21442 19.8794C5.21442 19.8794 5.35053 19.8787 5.35903 19.7177C5.36754 19.5568 5.21442 19.5391 5.21442 19.5391C5.2164 19.5391 5.21756 19.5391 5.21756 19.5391C5.21757 19.539 5.21045 19.5384 5.19119 19.536C5.16985 19.5334 5.14085 19.5295 5.10577 19.5247C5.03579 19.5149 4.94412 19.5014 4.8465 19.4868C4.65121 19.4574 4.4343 19.4235 4.32337 19.4053C4.32061 19.4048 4.31784 19.4044 4.31506 19.4041L3.71962 19.3361Z" fill="#11962F" fill-opacity="0.48"/>
<path fill-rule="evenodd" clip-rule="evenodd" d="M6.45621 21.6793L6.75891 21.2337C6.75891 21.2337 6.84784 21.104 6.72025 21.0105C6.59265 20.9169 6.47745 21.0425 6.47745 21.0425L6.17122 21.4933C6.16887 21.4968 6.16664 21.5003 6.16455 21.504L5.87534 22.0058C5.87315 22.0096 5.87111 22.0135 5.86922 22.0175L5.59702 22.5874C5.59478 22.5921 5.59275 22.5969 5.59094 22.6018L5.38679 23.1547C5.38635 23.1559 5.38592 23.1571 5.3855 23.1583L5.19836 23.7027C5.19717 23.7062 5.19609 23.7097 5.19512 23.7132L5.11856 23.994C5.09384 24.0846 5.14728 24.1781 5.23793 24.2028C5.32858 24.2276 5.4221 24.1741 5.44682 24.0835L5.52193 23.8081L5.70665 23.2707L5.90742 22.727L6.17342 22.17L6.45621 21.6793Z" fill="#11962F" fill-opacity="0.48"/>
<path fill-rule="evenodd" clip-rule="evenodd" d="M17.9994 21.6795L17.7779 21.2914C17.7779 21.2914 17.7098 21.1723 17.8374 21.0957C17.965 21.0192 18.0416 21.1383 18.0416 21.1383L18.2844 21.4935C18.2868 21.497 18.289 21.5005 18.2911 21.5042L18.5803 22.006C18.5825 22.0098 18.5845 22.0137 18.5864 22.0177L18.8586 22.5876C18.8608 22.5923 18.8629 22.5971 18.8647 22.602L19.0688 23.1549C19.0693 23.1561 19.0697 23.1573 19.0701 23.1585L19.2573 23.7029C19.2585 23.7064 19.2595 23.7099 19.2605 23.7134L19.3371 23.9941C19.3618 24.0848 19.3083 24.1783 19.2177 24.203C19.127 24.2278 19.0335 24.1743 19.0088 24.0837L18.9337 23.8083L18.749 23.2709L18.5482 22.7272L18.2822 22.1702L17.9994 21.6795Z" fill="#11962F" fill-opacity="0.48"/>
<path fill-rule="evenodd" clip-rule="evenodd" d="M12.2317 0.416748C12.6498 0.416748 12.9887 0.755694 12.9887 1.17381L12.9887 1.78626C12.9887 2.20437 12.6498 2.54331 12.2317 2.54331C11.8136 2.54331 11.4746 2.20437 11.4746 1.78626L11.4746 1.17381C11.4746 0.755694 11.8136 0.416748 12.2317 0.416748Z" fill="#DBFF00"/>
<defs>
<linearGradient id="paint0_linear_545_618" x1="21.7707" y1="21.3507" x2="19.5254" y2="22.7594" gradientUnits="userSpaceOnUse">
<stop stop-color="#FF3F3F"/>
<stop offset="1" stop-color="#802A2A"/>
</linearGradient>
<linearGradient id="paint1_linear_545_618" x1="2.68441" y1="21.3507" x2="4.92963" y2="22.7594" gradientUnits="userSpaceOnUse">
<stop stop-color="#FF3F3F"/>
<stop offset="1" stop-color="#802A2A"/>
</linearGradient>
<linearGradient id="paint2_linear_545_618" x1="19.4767" y1="3.80565" x2="17.0911" y2="7.2044" gradientUnits="userSpaceOnUse">
<stop stop-color="#DBFF00"/>
<stop offset="1" stop-color="#29CB00"/>
</linearGradient>
<linearGradient id="paint3_linear_545_618" x1="4.99203" y1="3.79955" x2="7.3777" y2="7.1983" gradientUnits="userSpaceOnUse">
<stop stop-color="#DBFF00"/>
<stop offset="1" stop-color="#29CB00"/>
</linearGradient>
<linearGradient id="paint4_linear_545_618" x1="11.5341" y1="8.889" x2="11.381" y2="23.4092" gradientUnits="userSpaceOnUse">
<stop stop-color="#DBFF00"/>
<stop offset="1" stop-color="#11962F"/>
</linearGradient>
<radialGradient id="paint5_diamond_545_618" cx="0" cy="0" r="1" gradientUnits="userSpaceOnUse" gradientTransform="translate(21.9086 20.1339) rotate(67.2012) scale(11.3216 12.5037)">
<stop stop-color="#DBFF00"/>
<stop offset="1" stop-color="#86C61E"/>
</radialGradient>
<radialGradient id="paint6_diamond_545_618" cx="0" cy="0" r="1" gradientUnits="userSpaceOnUse" gradientTransform="translate(2.53197 20.1339) rotate(112.798) scale(11.3217 12.5036)">
<stop stop-color="#DBFF00"/>
<stop offset="1" stop-color="#86C61E"/>
</radialGradient>
</defs>
</svg>
