<svg width="606" height="606" viewBox="0 0 606 606" fill="none" xmlns="http://www.w3.org/2000/svg">
<g filter="url(#filter0_d_697_15)">
<rect x="4" width="598" height="598" rx="150" fill="url(#paint0_linear_697_15)"/>
<path fill-rule="evenodd" clip-rule="evenodd" d="M476.897 482.517C482.646 475.33 493.132 474.165 500.319 479.914L505.318 483.914C512.505 489.663 513.67 500.149 507.921 507.336C502.171 514.522 491.685 515.688 484.498 509.938L479.499 505.939C472.313 500.19 471.148 489.703 476.897 482.517Z" fill="url(#paint1_linear_697_15)"/>
<path fill-rule="evenodd" clip-rule="evenodd" d="M128.832 482.517C123.083 475.33 112.596 474.165 105.41 479.914L100.41 483.914C93.2239 489.663 92.0587 500.149 97.8079 507.336C103.557 514.522 114.044 515.688 121.23 509.938L126.229 505.939C133.416 500.19 134.581 489.703 128.832 482.517Z" fill="url(#paint2_linear_697_15)"/>
<path fill-rule="evenodd" clip-rule="evenodd" d="M491.787 51.7178L491.601 51.6855C483.839 50.3355 475.95 49.8561 468.081 50.2562C462.448 50.5427 456.848 51.2786 451.332 52.4571L439.861 54.9082C439.754 54.931 439.649 54.959 439.545 54.9922L438.775 55.2376C423.656 60.0583 410.304 69.2526 400.408 81.6586L399.314 83.0298C394.207 89.433 390.257 96.6796 387.644 104.442C386.315 108.391 385.339 112.449 384.729 116.57L383.604 124.164L383.603 124.166C382.088 134.312 386.146 144.49 394.226 150.81L439.324 186.083C443.101 189.037 447.728 190.582 452.426 190.553C449.453 194.903 448.774 200.659 451.137 205.793C454.717 213.567 463.921 216.968 471.696 213.388L518.021 192.059C525.796 188.479 529.196 179.275 525.617 171.5C522.037 163.726 512.833 160.325 505.058 163.905L474.866 177.806L480.115 173.261C488.753 165.781 496.036 156.868 501.644 146.914L503.372 143.846C510.244 131.648 514.512 118.157 515.905 104.226C516.563 97.6471 516.575 91.0198 515.94 84.4387L515.53 80.1773C515.525 80.1266 515.519 80.0761 515.511 80.0257L514.678 74.1933C514.661 74.0753 514.638 73.9581 514.609 73.8425L513.56 69.7221C512.577 65.8597 510.614 62.3159 507.862 59.4329L507.369 58.9157C505.082 56.5199 502.244 54.7199 499.102 53.6726C499.039 53.6516 498.975 53.6326 498.911 53.6154L492.079 51.7824C491.983 51.7565 491.885 51.7349 491.787 51.7178Z" fill="url(#paint3_linear_697_15)"/>
<path fill-rule="evenodd" clip-rule="evenodd" d="M114.209 51.5982L114.394 51.5659C122.157 50.2159 130.046 49.7365 137.914 50.1366C143.547 50.423 149.148 51.159 154.663 52.3375L166.134 54.7886C166.241 54.8114 166.346 54.8394 166.45 54.8725L167.22 55.118C182.34 59.9387 195.691 69.133 205.587 81.5389L206.681 82.9101C211.789 89.3134 215.738 96.5599 218.352 104.323C219.681 108.271 220.656 112.33 221.267 116.451L222.392 124.044L222.392 124.046C223.907 134.192 219.85 144.37 211.769 150.69L166.672 185.963C162.894 188.918 158.265 190.463 153.566 190.434C156.542 194.783 157.223 200.543 154.858 205.678C151.279 213.453 142.074 216.853 134.3 213.274L87.9742 191.944C80.1997 188.364 76.7991 179.16 80.3788 171.385C83.9584 163.611 93.1627 160.21 100.937 163.79L131.142 177.697L125.88 173.141C117.243 165.662 109.96 156.749 104.351 146.794L102.623 143.726C95.7511 131.528 91.4836 118.038 90.0905 104.106C89.4326 97.5275 89.4208 90.9001 90.0551 84.319L90.4659 80.0576C90.4707 80.007 90.4768 79.9565 90.484 79.9061L91.3172 74.0737C91.334 73.9556 91.3572 73.8385 91.3866 73.7229L92.4355 69.6025C93.4187 65.74 95.3809 62.1963 98.1329 59.3133L98.6266 58.796C100.913 56.4003 103.752 54.6003 106.894 53.553C106.956 53.532 107.02 53.5129 107.084 53.4958L113.916 51.6627C114.013 51.6368 114.11 51.6153 114.209 51.5982Z" fill="url(#paint4_linear_697_15)"/>
<path fill-rule="evenodd" clip-rule="evenodd" d="M116.8 75.2956C115.492 76.5913 115.483 78.7015 116.779 80.0088L190.433 154.33C191.728 155.637 193.839 155.647 195.146 154.351C196.453 153.055 196.463 150.945 195.167 149.638L121.513 75.3169C120.217 74.0095 118.107 74 116.8 75.2956Z" fill="#11962F" fill-opacity="0.48"/>
<path fill-rule="evenodd" clip-rule="evenodd" d="M488.949 75.2956C490.256 76.5913 490.265 78.7015 488.97 80.0088L415.315 154.33C414.02 155.637 411.91 155.647 410.602 154.351C409.295 153.055 409.285 150.945 410.581 149.638L484.235 75.3169C485.531 74.0095 487.641 74 488.949 75.2956Z" fill="#11962F" fill-opacity="0.48"/>
<path fill-rule="evenodd" clip-rule="evenodd" d="M362.348 146.058C342.161 137.794 320.495 133.755 298.686 134.191C279.276 134.579 260.1 138.505 242.099 145.777L238.353 147.29C216.643 156.059 196.834 168.946 180.018 185.238L175.715 189.407C165.197 199.597 156.067 211.128 148.561 223.702L147.987 224.663C135.519 245.55 127.917 268.978 125.747 293.206L125.395 297.142C123.478 318.543 126.362 340.102 133.835 360.248C143.305 382.945 141.305 379.279 147.138 389.444C150.128 393.875 153.595 397.964 157.475 401.641L164.302 408.108C183.531 423.865 239.698 466.71 263.252 474.666C268.919 476.581 271.962 482.727 270.048 488.394C268.133 494.062 261.987 497.104 256.319 495.19C230.291 486.398 206.066 472.971 184.816 455.558L163.967 438.473C141.181 419.801 123.771 395.403 113.525 367.782C104.93 344.615 101.614 319.821 103.818 295.209L104.171 291.274C106.631 263.803 115.249 237.241 129.387 213.559L129.96 212.598C138.442 198.391 148.757 185.362 160.641 173.848L164.944 169.68C183.766 151.443 205.939 137.019 230.24 127.203L233.985 125.69C254.429 117.432 276.208 112.973 298.253 112.532C323.021 112.037 347.629 116.624 370.555 126.01L378.027 129.069C401.983 138.876 423.855 153.151 442.476 171.133L444.168 172.767C458.302 186.415 470.222 202.182 479.5 219.501L479.893 220.234C493.104 244.895 500.566 272.226 501.718 300.18L501.806 302.321C502.811 326.699 498.716 351.018 489.784 373.723C480.569 397.146 466.419 418.311 448.295 435.777L441.95 441.892C419.631 463.402 392.938 479.85 363.691 490.117L349.359 495.148C343.714 497.13 337.532 494.16 335.551 488.516C333.57 482.871 336.539 476.689 342.184 474.708L356.516 469.677C382.827 460.441 381.765 425.105 396.263 429.271L413.38 422.832C426.07 418.059 437.736 410.913 447.754 401.775C453.42 396.61 461.549 386.321 469.625 365.792C477.453 345.893 481.042 324.579 480.161 303.214L480.073 301.072C479.056 276.383 472.466 252.245 460.798 230.464L460.405 229.731C452.19 214.396 441.635 200.435 429.121 188.351L427.428 186.716C410.783 170.643 391.233 157.883 369.819 149.117L362.348 146.058Z" fill="url(#paint5_linear_697_15)"/>
<path fill-rule="evenodd" clip-rule="evenodd" d="M473.783 398.481C476.846 398.04 479.973 398.105 483.036 398.686L488.345 399.692C491.368 400.264 494.329 401.12 497.192 402.246L500.038 403.367C506.137 405.767 511.924 408.894 517.275 412.678L523.213 416.878C523.263 416.914 523.312 416.95 523.359 416.988L528.192 420.821C528.276 420.887 528.357 420.958 528.434 421.033L531.214 423.713C533.312 425.736 534.016 428.808 533.008 431.542C532.693 432.398 532.221 433.187 531.617 433.87L528.284 437.638C528.207 437.725 528.125 437.808 528.04 437.887L524.04 441.553C523.958 441.628 523.872 441.7 523.782 441.767L516.447 447.242C513.317 449.579 510.012 451.671 506.56 453.501C500.403 456.765 493.827 459.168 487.016 460.644L484.353 461.221C479.17 462.344 473.902 463.035 468.604 463.287L465.79 463.421C465.685 463.426 465.58 463.426 465.475 463.422L462.847 463.298C457.146 463.031 451.534 461.782 446.257 459.605L445.731 459.388C441.888 457.803 438.281 455.698 435.011 453.133L434.607 452.92C439.969 457.426 444.522 462.846 448.045 468.948C449.662 471.749 451.051 474.675 452.199 477.698L453.172 480.261C454.833 484.635 456.124 489.14 457.031 493.73C458.087 499.07 458.618 504.5 458.618 509.944V513.048C458.618 517.578 458.248 522.101 457.511 526.572L456.523 532.569C456.185 534.618 455.622 536.624 454.844 538.55L452.933 543.282C452.352 544.721 451.407 545.984 450.19 546.947C447.44 549.124 443.67 549.494 440.549 547.891L431.434 543.21C431.375 543.18 431.318 543.149 431.262 543.115L428.467 541.465C420.889 536.992 413.934 531.539 407.781 525.248L406.963 524.412C403.467 520.837 400.287 516.967 397.459 512.844L395.975 510.681C392.992 506.333 390.549 501.64 388.698 496.704L388.495 496.164C387.329 493.054 386.43 489.85 385.809 486.587L384.819 481.391C377.959 484.649 370.917 487.549 363.721 490.076L349.389 495.107C343.744 497.088 337.562 494.118 335.581 488.474C333.6 482.83 336.569 476.648 342.213 474.666L356.546 469.635C369.426 465.114 382.934 451.512 395.069 439.292C407.723 426.55 418.884 415.311 426.285 417.438L446.232 406.618C454.76 401.992 464.15 399.227 473.783 398.481Z" fill="url(#paint6_diamond_697_15)"/>
<path fill-rule="evenodd" clip-rule="evenodd" d="M131.632 398.474C128.583 398.04 125.473 398.108 122.426 398.686L117.116 399.692C114.094 400.264 111.132 401.12 108.27 402.246L105.423 403.367C99.3245 405.767 93.5372 408.894 88.1864 412.678L82.2486 416.878C82.1988 416.914 82.1499 416.95 82.1021 416.988L77.2696 420.821C77.1854 420.887 77.1045 420.958 77.0272 421.033L74.2475 423.713C72.1497 425.736 71.4458 428.808 72.4533 431.542C72.7685 432.398 73.2402 433.187 73.8445 433.87L77.1776 437.638C77.2546 437.725 77.3362 437.808 77.4218 437.887L81.4212 441.553C81.5036 441.628 81.5899 441.7 81.6796 441.767L89.0145 447.242C92.1446 449.579 95.4499 451.671 98.9011 453.501C105.058 456.765 111.634 459.168 118.445 460.644L121.109 461.221C126.292 462.344 131.56 463.035 136.857 463.287L139.672 463.421C139.777 463.426 139.882 463.426 139.986 463.422L142.614 463.298C148.316 463.031 153.928 461.782 159.204 459.605L159.731 459.388C163.573 457.803 167.18 455.698 170.451 453.133L170.788 452.955C165.447 457.454 160.91 462.859 157.398 468.943C155.781 471.744 154.392 474.67 153.244 477.693L152.27 480.256C150.609 484.63 149.319 489.135 148.411 493.725C147.356 499.065 146.824 504.495 146.824 509.939V513.043C146.824 517.574 147.194 522.097 147.931 526.567L148.92 532.564C149.258 534.614 149.821 536.619 150.598 538.545L152.509 543.277C153.09 544.716 154.036 545.979 155.252 546.942C158.003 549.12 161.773 549.489 164.894 547.886L174.009 543.205C174.067 543.175 174.124 543.144 174.181 543.111L176.976 541.461C184.553 536.987 191.508 531.534 197.661 525.243L198.479 524.407C201.975 520.832 205.155 516.962 207.984 512.839L209.468 510.676C212.45 506.329 214.894 501.635 216.745 496.699L216.947 496.159C218.114 493.049 219.012 489.845 219.634 486.582L220.624 481.387C227.483 484.644 234.525 487.545 241.721 490.071L256.054 495.102C261.698 497.083 267.88 494.114 269.861 488.469C271.843 482.825 268.873 476.643 263.229 474.662L248.897 469.631C236.016 465.109 222.508 451.507 210.373 439.288C197.719 426.546 186.558 415.307 179.158 417.433L159.21 406.613C150.674 401.983 141.274 399.217 131.632 398.474Z" fill="url(#paint7_diamond_697_15)"/>
<path fill-rule="evenodd" clip-rule="evenodd" d="M244.636 191.232C262.323 182.412 281.817 177.821 301.581 177.821C315.196 177.821 328.724 180 341.65 184.275L343.68 184.947C355.238 188.769 366.253 194.074 376.447 200.729L380.406 203.313C393.333 211.751 404.698 222.37 413.995 234.695C427.378 252.439 436.116 273.245 439.415 295.224L439.712 297.198C442.38 314.973 441.345 333.108 436.673 350.464C432.085 367.502 424.094 383.414 413.2 397.247L324.82 210.736C322.125 205.049 317.323 200.633 311.43 198.423L310.848 198.205C304.996 196.01 298.499 196.316 292.878 199.05C288.229 201.312 284.488 205.087 282.268 209.756L192.863 397.782C183.68 385.602 176.556 371.954 171.815 357.377L171.4 356.1C164.952 336.276 163.241 315.217 166.405 294.612C169.971 271.386 179.61 249.515 194.347 231.212L195.322 230C207.889 214.393 223.678 201.683 241.609 192.741L244.636 191.232ZM213.457 419.664C223.266 428.037 234.218 435.01 246.002 440.361L263.253 448.195C270.292 451.392 273.406 459.689 270.21 466.728C267.013 473.767 258.716 476.882 251.677 473.685L234.426 465.851C215.208 457.124 197.831 444.812 183.224 429.575C165.925 411.529 152.925 389.809 145.193 366.036L144.777 364.759C136.976 340.773 134.906 315.294 138.734 290.364C143.048 262.262 154.711 235.8 172.541 213.655L173.517 212.443C188.611 193.696 207.577 178.429 229.116 167.688L232.143 166.179C253.71 155.424 277.481 149.826 301.581 149.826C318.183 149.826 334.678 152.483 350.441 157.696L352.471 158.367C366.326 162.95 379.529 169.309 391.75 177.286L395.708 179.87C411.349 190.079 425.098 202.926 436.345 217.837C452.537 239.305 463.109 264.477 467.101 291.068L467.397 293.042C470.638 314.632 469.381 336.66 463.705 357.742C457.577 380.503 446.448 401.609 431.127 419.522L430.678 420.047L430.628 420.105C412.134 441.491 389.019 458.392 363.032 469.531L353.06 473.806C345.954 476.851 337.725 473.56 334.679 466.455C331.634 459.349 334.925 451.12 342.03 448.075L352.003 443.8C366.694 437.503 380.305 429.039 392.399 418.728L378.527 389.452H227.823L213.457 419.664ZM317.219 260.072L365.261 361.457H241.134L289.224 260.32V331.629C289.224 339.36 295.491 345.627 303.222 345.627C310.952 345.627 317.219 339.36 317.219 331.629L317.219 260.072ZM316.569 411.947C316.569 404.216 310.302 397.949 302.571 397.949C294.84 397.949 288.573 404.216 288.573 411.947V501.265C288.573 508.996 294.84 515.263 302.571 515.263C310.302 515.263 316.569 508.996 316.569 501.265L316.569 411.947Z" fill="#F6EDE3"/>
<path fill-rule="evenodd" clip-rule="evenodd" d="M465.76 427.276C465.886 427.261 470.8 426.942 470.926 426.942L506.587 427.109C508.428 427.109 509.92 428.601 509.92 430.442C509.92 432.282 508.428 433.775 506.587 433.775H470.116L458.722 435.077C456.484 435.444 452.259 436.104 448.463 436.675C446.541 436.963 444.719 437.231 443.314 437.427C442.613 437.525 442.003 437.606 441.532 437.664C441.172 437.708 440.634 437.774 440.265 437.774C440.265 437.774 437.432 437.274 437.432 434.441C437.432 431.608 440.265 431.108 440.265 431.108C440.226 431.108 440.203 431.109 440.203 431.108C440.203 431.105 440.343 431.095 440.72 431.048C441.138 430.997 441.706 430.921 442.393 430.825C443.764 430.634 445.56 430.37 447.472 430.083C451.298 429.508 455.547 428.844 457.721 428.486C457.775 428.477 457.829 428.47 457.883 428.464L465.76 427.276Z" fill="#11962F" fill-opacity="0.48"/>
<path fill-rule="evenodd" clip-rule="evenodd" d="M136.194 427.131C136.068 427.117 135.942 427.11 135.815 427.11H99.1547C97.3141 427.11 95.822 428.602 95.822 430.443C95.822 432.283 97.3141 433.775 99.1547 433.775H135.625L147.02 435.078C149.258 435.445 153.483 436.105 157.279 436.675C159.2 436.964 161.023 437.232 162.428 437.428C163.129 437.525 163.739 437.607 164.21 437.665C164.57 437.709 165.108 437.775 165.477 437.775C165.477 437.775 168.143 437.761 168.31 434.609C168.477 431.456 165.477 431.109 165.477 431.109C165.516 431.109 165.538 431.11 165.539 431.109C165.539 431.106 165.399 431.095 165.022 431.049C164.604 430.998 164.036 430.922 163.349 430.826C161.977 430.635 160.182 430.371 158.269 430.084C154.444 429.509 150.194 428.845 148.021 428.487C147.967 428.478 147.913 428.471 147.858 428.465L136.194 427.131Z" fill="#11962F" fill-opacity="0.48"/>
<path fill-rule="evenodd" clip-rule="evenodd" d="M189.804 473.036L195.733 464.306C195.733 464.306 197.476 461.767 194.976 459.934C192.477 458.101 190.22 460.561 190.22 460.561L184.221 469.393C184.175 469.46 184.131 469.53 184.09 469.601L178.424 479.433C178.381 479.507 178.341 479.583 178.304 479.66L172.972 490.825C172.928 490.917 172.888 491.011 172.853 491.107L168.854 501.939C168.845 501.962 168.836 501.986 168.828 502.01L165.162 512.675C165.139 512.743 165.118 512.812 165.099 512.881L163.599 518.38C163.115 520.156 164.162 521.988 165.937 522.472C167.713 522.957 169.545 521.91 170.03 520.134L171.501 514.739L175.12 504.212L179.053 493.56L184.264 482.649L189.804 473.036Z" fill="#11962F" fill-opacity="0.48"/>
<path fill-rule="evenodd" clip-rule="evenodd" d="M415.936 473.039L411.597 465.436C411.597 465.436 410.263 463.103 412.763 461.603C415.263 460.104 416.762 462.437 416.762 462.437L421.519 469.396C421.565 469.464 421.609 469.533 421.65 469.604L427.316 479.436C427.358 479.51 427.398 479.586 427.435 479.664L432.768 490.829C432.812 490.921 432.852 491.015 432.887 491.111L436.886 501.942C436.895 501.966 436.903 501.989 436.912 502.013L440.578 512.678C440.601 512.746 440.622 512.815 440.641 512.884L442.141 518.384C442.625 520.159 441.578 521.991 439.802 522.476C438.027 522.96 436.195 521.913 435.71 520.137L434.239 514.743L430.62 504.216L426.687 493.563L421.476 482.653L415.936 473.039Z" fill="#11962F" fill-opacity="0.48"/>
<path fill-rule="evenodd" clip-rule="evenodd" d="M302.945 56.5C311.136 56.5 317.776 63.14 317.776 71.3308L317.776 83.3288C317.776 91.5197 311.136 98.1597 302.945 98.1597C294.755 98.1597 288.115 91.5197 288.115 83.3288L288.115 71.3308C288.115 63.14 294.754 56.5 302.945 56.5Z" fill="#DBFF00"/>
</g>
<defs>
<filter id="filter0_d_697_15" x="0" y="0" width="606" height="606" filterUnits="userSpaceOnUse" color-interpolation-filters="sRGB">
<feFlood flood-opacity="0" result="BackgroundImageFix"/>
<feColorMatrix in="SourceAlpha" type="matrix" values="0 0 0 0 0 0 0 0 0 0 0 0 0 0 0 0 0 0 127 0" result="hardAlpha"/>
<feOffset dy="4"/>
<feGaussianBlur stdDeviation="2"/>
<feComposite in2="hardAlpha" operator="out"/>
<feColorMatrix type="matrix" values="0 0 0 0 0 0 0 0 0 0 0 0 0 0 0 0 0 0 0.25 0"/>
<feBlend mode="normal" in2="BackgroundImageFix" result="effect1_dropShadow_697_15"/>
<feBlend mode="normal" in="SourceGraphic" in2="effect1_dropShadow_697_15" result="shape"/>
</filter>
<linearGradient id="paint0_linear_697_15" x1="303" y1="0" x2="303" y2="598" gradientUnits="userSpaceOnUse">
<stop stop-color="#6CFE69"/>
<stop offset="0.997692" stop-color="#0C3826"/>
</linearGradient>
<linearGradient id="paint1_linear_697_15" x1="489.815" y1="466.598" x2="445.831" y2="494.195" gradientUnits="userSpaceOnUse">
<stop stop-color="#FF3F3F"/>
<stop offset="1" stop-color="#802A2A"/>
</linearGradient>
<linearGradient id="paint2_linear_697_15" x1="115.913" y1="466.598" x2="159.897" y2="494.195" gradientUnits="userSpaceOnUse">
<stop stop-color="#FF3F3F"/>
<stop offset="1" stop-color="#802A2A"/>
</linearGradient>
<linearGradient id="paint3_linear_697_15" x1="444.873" y1="122.889" x2="398.137" y2="189.469" gradientUnits="userSpaceOnUse">
<stop stop-color="#DBFF00"/>
<stop offset="1" stop-color="#29CB00"/>
</linearGradient>
<linearGradient id="paint4_linear_697_15" x1="161.122" y1="122.772" x2="207.86" y2="189.353" gradientUnits="userSpaceOnUse">
<stop stop-color="#DBFF00"/>
<stop offset="1" stop-color="#29CB00"/>
</linearGradient>
<linearGradient id="paint5_linear_697_15" x1="289.281" y1="222.472" x2="286.281" y2="506.924" gradientUnits="userSpaceOnUse">
<stop stop-color="#DBFF00"/>
<stop offset="1" stop-color="#11962F"/>
</linearGradient>
<radialGradient id="paint6_diamond_697_15" cx="0" cy="0" r="1" gradientUnits="userSpaceOnUse" gradientTransform="translate(492.527 442.762) rotate(67.2002) scale(221.795 244.961)">
<stop stop-color="#DBFF00"/>
<stop offset="1" stop-color="#86C61E"/>
</radialGradient>
<radialGradient id="paint7_diamond_697_15" cx="0" cy="0" r="1" gradientUnits="userSpaceOnUse" gradientTransform="translate(112.931 442.761) rotate(112.798) scale(221.786 244.94)">
<stop stop-color="#DBFF00"/>
<stop offset="1" stop-color="#86C61E"/>
</radialGradient>
</defs>
</svg>
