<svg width="722" height="764" viewBox="0 0 722 764" fill="none" xmlns="http://www.w3.org/2000/svg">
  <path
    d="M164.639 202.435L176.615 190.973C198.387 170.136 223.471 153.063 250.842 140.452L255.951 138.098C288.266 123.21 323.424 115.5 359.004 115.5C394.257 115.5 429.099 123.068 461.175 137.694L465.613 139.717C494.314 152.804 520.486 170.841 542.932 193.002L555.05 204.967C576.833 226.474 594.616 252.055 607.283 279.922C624.063 316.839 631.699 357.664 629.211 398.139C626.773 437.799 614.842 476.292 594.424 510.379L590.161 517.496C573.511 545.291 551.945 570.217 526.902 590.774C507.842 606.421 486.643 619.688 464.213 629.934L420.584 649.863C418.202 650.951 415.708 651.778 413.148 652.33L406.993 653.655C393.87 656.482 384.5 668.085 384.5 681.508C384.5 697.244 371.744 710 356.008 710H354.034C338.275 710 325.5 697.225 325.5 681.466C325.5 668.057 316.163 656.458 303.064 653.592L297.714 652.422C294.915 651.81 292.201 650.859 289.631 649.591L242.328 626.255C226.47 618.432 211.285 609.312 196.927 598.99L183.475 589.319C156.125 569.655 133.17 544.511 116.072 515.488C94.0918 478.177 82.5 435.663 82.5 392.359V390.815C82.5 355.028 90.2374 319.665 105.182 287.148L106.821 283.581C120.815 253.134 140.431 225.603 164.639 202.435Z"
    fill="#2D2D2D" />
  <path fill-rule="evenodd" clip-rule="evenodd"
    d="M250.093 125.383C284.245 109.648 321.402 101.5 359.004 101.5C396.261 101.5 433.084 109.499 466.983 124.955L471.421 126.979C501.617 140.747 529.153 159.724 552.768 183.04L564.886 195.005C587.897 217.724 606.661 244.721 620.028 274.129C637.746 313.109 645.814 356.216 643.184 398.998C640.609 440.896 628.005 481.563 606.434 517.574L602.171 524.69C584.687 553.879 562.058 580.028 535.785 601.595C515.8 618.001 493.571 631.914 470.03 642.668L426.401 662.597C423.1 664.105 419.644 665.252 416.096 666.016L409.94 667.342C403.266 668.779 398.5 674.681 398.5 681.508C398.5 704.976 379.476 724 356.008 724H354.034C330.543 724 311.5 704.957 311.5 681.466C311.5 674.637 306.744 668.728 300.072 667.269L294.722 666.098C290.814 665.244 287.025 663.917 283.438 662.147L236.134 638.81C219.585 630.646 203.738 621.129 188.755 610.357L175.303 600.686C146.374 579.887 122.094 553.292 104.009 522.594C80.7608 483.13 68.5 438.162 68.5 392.359V390.815C68.5 353.01 76.6738 315.652 92.4612 281.302L94.1007 277.734C108.83 245.686 129.477 216.707 154.959 192.32L166.935 180.858C189.828 158.949 216.203 140.997 244.983 127.737L250.093 125.383Z"
    fill="url(#paint0_linear_551_272)" />
  <path fill-rule="evenodd" clip-rule="evenodd"
    d="M614.031 644.631C622.567 633.961 638.137 632.231 648.806 640.767L656.229 646.704C666.898 655.24 668.628 670.81 660.092 681.479C651.557 692.149 635.987 693.879 625.318 685.343L617.895 679.406C607.225 670.87 605.496 655.3 614.031 644.631Z"
    fill="url(#paint1_linear_551_272)" />
  <path fill-rule="evenodd" clip-rule="evenodd"
    d="M97.2573 644.631C88.7215 633.961 73.1522 632.231 62.4824 640.767L55.0601 646.704C44.3903 655.24 42.6603 670.81 51.1962 681.479C59.7321 692.149 75.3013 693.879 85.9712 685.343L93.3934 679.406C104.063 670.87 105.793 655.3 97.2573 644.631Z"
    fill="url(#paint2_linear_551_272)" />
  <path fill-rule="evenodd" clip-rule="evenodd"
    d="M636.138 5.02128L635.863 4.9733C624.338 2.96899 612.625 2.25724 600.942 2.85128C592.58 3.2765 584.264 4.3692 576.076 6.11893L559.044 9.75811C558.886 9.79194 558.729 9.83352 558.575 9.88271L557.432 10.2471C534.984 17.4045 515.161 31.0552 500.468 49.4744L498.844 51.5103C491.261 61.0172 485.397 71.7762 481.517 83.3018C479.544 89.1638 478.095 95.1896 477.189 101.308L475.518 112.582L475.518 112.585C473.268 127.649 479.293 142.76 491.29 152.144L558.246 204.514C563.854 208.9 570.725 211.194 577.7 211.151C573.286 217.608 572.277 226.156 575.786 233.777C581.101 245.32 594.766 250.369 606.309 245.054L675.089 213.386C686.632 208.071 691.681 194.406 686.366 182.863C681.051 171.32 667.386 166.271 655.843 171.586L611.015 192.226L618.81 185.476C631.634 174.372 642.447 161.139 650.773 146.359L653.339 141.805C663.542 123.694 669.878 103.664 671.947 82.9803C672.923 73.2128 672.941 63.373 671.999 53.6021L671.389 47.2752C671.382 47.2 671.373 47.1249 671.363 47.0501L670.126 38.3908C670.1 38.2155 670.066 38.0416 670.022 37.87L668.465 31.7523C667.005 26.0177 664.092 20.7563 660.006 16.4759L659.273 15.708C655.878 12.151 651.664 9.47852 646.999 7.92353C646.906 7.89242 646.812 7.86411 646.717 7.83862L636.573 5.11711C636.429 5.07867 636.285 5.04669 636.138 5.02128Z"
    fill="url(#paint3_linear_551_272)" />
  <path fill-rule="evenodd" clip-rule="evenodd"
    d="M75.5463 4.84379L75.8221 4.79581C87.3469 2.7915 99.0594 2.07975 110.742 2.67379C119.105 3.09901 127.42 4.19171 135.609 5.94144L152.641 9.58062C152.799 9.61445 152.955 9.65603 153.11 9.70522L154.253 10.0696C176.701 17.227 196.523 30.8777 211.216 49.297L212.84 51.3328C220.424 60.8397 226.288 71.5987 230.168 83.1243C232.141 88.9863 233.59 95.0121 234.496 101.131L236.166 112.405L236.167 112.408C238.417 127.472 232.392 142.582 220.394 151.966L153.438 204.336C147.829 208.724 140.957 211.017 133.98 210.973C138.398 217.432 139.409 225.982 135.899 233.607C130.584 245.15 116.918 250.199 105.376 244.884L36.5958 213.216C25.053 207.901 20.0041 194.235 25.3188 182.692C30.6334 171.15 44.2991 166.101 55.8419 171.415L100.687 192.064L92.8749 185.299C80.0508 174.194 69.2378 160.961 60.9112 146.181L58.3454 141.627C48.1422 123.517 41.8063 103.487 39.7379 82.8028C38.7612 73.0353 38.7436 63.1956 39.6853 53.4246L40.2952 47.0977C40.3024 47.0225 40.3114 46.9474 40.3221 46.8726L41.5591 38.2133C41.5842 38.038 41.6186 37.8641 41.6623 37.6925L43.2195 31.5748C44.6792 25.8402 47.5926 20.5788 51.6785 16.2984L52.4115 15.5305C55.8068 11.9735 60.0206 9.30103 64.6856 7.74604C64.7789 7.71493 64.8731 7.68661 64.9681 7.66113L75.1119 4.93962C75.2552 4.90118 75.4001 4.8692 75.5463 4.84379Z"
    fill="url(#paint4_linear_551_272)" />
  <path fill-rule="evenodd" clip-rule="evenodd"
    d="M79.3935 40.0273C77.4525 41.951 77.4383 45.084 79.362 47.025L188.717 157.37C190.641 159.311 193.774 159.325 195.715 157.401C197.656 155.477 197.67 152.344 195.746 150.403L86.3913 40.0588C84.4676 38.1178 81.3346 38.1037 79.3935 40.0273Z"
    fill="#11962F" fill-opacity="0.48" />
  <path fill-rule="evenodd" clip-rule="evenodd"
    d="M631.924 40.0273C633.866 41.951 633.88 45.084 631.956 47.025L522.601 157.37C520.677 159.311 517.544 159.325 515.603 157.401C513.662 155.477 513.648 152.344 515.572 150.403L624.927 40.0588C626.85 38.1178 629.983 38.1037 631.924 40.0273Z"
    fill="#11962F" fill-opacity="0.48" />
  <path fill-rule="evenodd" clip-rule="evenodd"
    d="M443.96 145.089C413.988 132.819 381.82 126.822 349.441 127.47C320.623 128.046 292.152 133.875 265.426 144.671L259.864 146.918C227.631 159.938 198.221 179.07 173.253 203.26L166.865 209.449C151.25 224.578 137.694 241.699 126.549 260.368L125.698 261.794C107.185 292.805 95.8993 327.588 92.6779 363.56L92.1546 369.404C89.3091 401.178 93.5903 433.187 104.686 463.097C118.746 496.796 115.777 491.353 124.436 506.445C128.876 513.023 134.023 519.095 139.784 524.553L149.92 534.155C178.47 557.551 261.861 621.163 296.831 632.975C305.246 635.817 309.763 644.943 306.921 653.357C304.079 661.772 294.953 666.289 286.539 663.447C247.894 650.393 211.928 630.459 180.378 604.605L149.423 579.24C115.592 551.516 89.7437 515.293 74.5308 474.284C61.7706 439.887 56.8472 403.076 60.1196 366.535L60.6429 360.691C64.2953 319.906 77.0917 280.468 98.0811 245.308L98.9326 243.882C111.525 222.787 126.841 203.444 144.485 186.349L150.873 180.16C178.819 153.084 211.739 131.669 247.818 117.095L253.38 114.849C283.733 102.588 316.068 95.9677 348.798 95.3131C385.572 94.5776 422.106 101.388 456.146 115.323L467.238 119.865C502.806 134.426 535.279 155.62 562.926 182.317L565.439 184.744C586.424 205.007 604.122 228.417 617.897 254.13L618.479 255.218C638.095 291.833 649.172 332.412 650.883 373.915L651.014 377.094C652.506 413.288 646.427 449.394 633.165 483.104C619.484 517.881 598.475 549.304 571.566 575.236L562.145 584.315C529.008 616.251 489.378 640.672 445.954 655.915L424.675 663.385C416.295 666.327 407.116 661.918 404.174 653.537C401.233 645.157 405.642 635.979 414.022 633.037L435.301 625.568C474.365 611.855 472.789 559.391 494.313 565.576L519.727 556.017C538.569 548.93 555.889 538.32 570.763 524.754C579.175 517.084 591.244 501.809 603.235 471.33C614.857 441.785 620.186 410.14 618.878 378.419L618.747 375.239C617.236 338.584 607.453 302.745 590.129 270.407L589.546 269.318C577.349 246.551 561.678 225.823 543.098 207.881L540.585 205.454C515.872 181.591 486.845 162.646 455.052 149.63L443.96 145.089Z"
    fill="url(#paint5_linear_551_272)" />
  <path fill-rule="evenodd" clip-rule="evenodd"
    d="M609.406 519.862C613.955 519.207 618.598 519.304 623.146 520.166L631.029 521.659C635.516 522.51 639.914 523.78 644.163 525.452L648.39 527.116C657.445 530.68 666.037 535.322 673.981 540.941L682.797 547.177C682.871 547.229 682.944 547.283 683.015 547.34L690.19 553.03C690.314 553.129 690.435 553.234 690.549 553.345L694.676 557.325C697.791 560.328 698.836 564.888 697.34 568.948C696.872 570.218 696.172 571.391 695.275 572.405L690.326 577.999C690.212 578.128 690.091 578.251 689.964 578.368L684.026 583.811C683.903 583.923 683.775 584.029 683.642 584.129L672.752 592.258C668.104 595.727 663.197 598.834 658.073 601.55C648.932 606.396 639.168 609.965 629.056 612.156L625.102 613.012C617.406 614.68 609.585 615.706 601.719 616.081L597.541 616.279C597.385 616.287 597.229 616.287 597.073 616.28L593.172 616.097C584.707 615.7 576.375 613.845 568.541 610.614L567.759 610.291C562.054 607.938 556.699 604.813 551.843 601.005L551.244 600.688C559.204 607.379 565.964 615.425 571.194 624.484C573.595 628.643 575.658 632.987 577.362 637.476L578.807 641.281C581.273 647.775 583.19 654.464 584.537 661.278C586.104 669.207 586.893 677.269 586.893 685.351V689.96C586.893 696.686 586.343 703.402 585.249 710.039L583.782 718.943C583.28 721.986 582.444 724.964 581.29 727.823L578.452 734.849C577.59 736.985 576.186 738.86 574.38 740.29C570.296 743.523 564.699 744.071 560.065 741.692L546.532 734.742C546.445 734.698 546.36 734.651 546.277 734.601L542.127 732.152C530.876 725.51 520.55 717.414 511.415 708.074L510.201 706.832C505.01 701.525 500.289 695.778 496.089 689.657L493.886 686.445C489.458 679.991 485.83 673.023 483.081 665.694L482.781 664.893C481.049 660.275 479.715 655.518 478.792 650.674L477.323 642.959C467.138 647.796 456.683 652.102 445.998 655.853L424.719 663.323C416.339 666.264 407.161 661.856 404.219 653.475C401.277 645.095 405.686 635.917 414.066 632.975L435.345 625.505C454.469 618.792 474.524 598.597 492.542 580.455C511.329 561.537 527.9 544.851 538.887 548.008L568.503 531.943C581.164 525.075 595.105 520.97 609.406 519.862Z"
    fill="url(#paint6_diamond_551_272)" />
  <path fill-rule="evenodd" clip-rule="evenodd"
    d="M101.413 519.852C96.8874 519.208 92.2703 519.309 87.7466 520.166L79.8634 521.66C75.376 522.51 70.9785 523.78 66.7287 525.453L62.5024 527.116C53.4477 530.68 44.8553 535.322 36.9108 540.941L28.0949 547.177C28.021 547.229 27.9485 547.284 27.8775 547.34L20.7027 553.03C20.5777 553.129 20.4576 553.234 20.3427 553.345L16.2157 557.325C13.1012 560.328 12.056 564.888 13.5518 568.948C14.0198 570.219 14.7202 571.391 15.6173 572.405L20.5661 577.999C20.6804 578.128 20.8015 578.252 20.9286 578.368L26.8665 583.811C26.989 583.923 27.117 584.029 27.2501 584.129L38.1403 592.258C42.7877 595.727 47.6951 598.834 52.819 601.55C61.9607 606.396 71.7243 609.965 81.8364 612.156L85.7905 613.012C93.4864 614.68 101.307 615.706 109.173 616.081L113.352 616.28C113.507 616.287 113.663 616.287 113.819 616.28L117.72 616.097C126.185 615.7 134.518 613.845 142.351 610.614L143.133 610.291C148.838 607.938 154.194 604.813 159.05 601.005L159.549 600.74C151.619 607.42 144.884 615.445 139.669 624.478C137.269 628.636 135.206 632.981 133.501 637.469L132.057 641.274C129.591 647.768 127.674 654.457 126.327 661.271C124.76 669.2 123.971 677.262 123.971 685.344V689.953C123.971 696.68 124.52 703.395 125.614 710.032L127.082 718.936C127.584 721.979 128.419 724.957 129.574 727.816L132.411 734.842C133.274 736.978 134.677 738.853 136.484 740.283C140.568 743.516 146.165 744.064 150.798 741.685L164.332 734.735C164.418 734.691 164.504 734.644 164.587 734.595L168.737 732.145C179.987 725.503 190.313 717.407 199.448 708.067L200.663 706.825C205.854 701.518 210.575 695.771 214.775 689.65L216.978 686.439C221.406 679.984 225.034 673.016 227.782 665.687L228.083 664.886C229.814 660.268 231.149 655.511 232.072 650.667L233.541 642.952C243.726 647.79 254.181 652.096 264.865 655.846L286.144 663.316C294.524 666.258 303.703 661.849 306.644 653.469C309.586 645.088 305.177 635.91 296.797 632.968L275.518 625.499C256.395 618.786 236.339 598.591 218.322 580.448C199.535 561.53 182.964 544.844 171.976 548.001L142.36 531.936C129.686 525.061 115.73 520.955 101.413 519.852Z"
    fill="url(#paint7_diamond_551_272)" />
  <path fill-rule="evenodd" clip-rule="evenodd"
    d="M269.193 212.158C295.452 199.063 324.395 192.247 353.739 192.247C373.953 192.247 394.038 195.482 413.23 201.83L416.243 202.827C433.404 208.502 449.757 216.379 464.893 226.259L470.771 230.095C489.964 242.624 506.838 258.389 520.64 276.688C540.51 303.033 553.484 333.924 558.382 366.557L558.822 369.486C562.784 395.877 561.248 422.802 554.31 448.571C547.5 473.867 535.634 497.492 519.46 518.03L388.243 241.117C384.241 232.673 377.111 226.116 368.362 222.835L367.498 222.511C358.809 219.253 349.163 219.706 340.818 223.766C333.916 227.124 328.36 232.729 325.064 239.661L192.325 518.824C178.691 500.741 168.114 480.478 161.075 458.835L160.458 456.938C150.886 427.506 148.346 396.239 153.042 365.648C158.337 331.164 172.648 298.691 194.527 271.517L195.976 269.718C214.634 246.545 238.075 227.676 264.698 214.4L269.193 212.158ZM222.902 551.312C237.465 563.744 253.725 574.096 271.221 582.042L296.833 593.673C307.283 598.419 311.908 610.738 307.162 621.189C302.416 631.639 290.097 636.264 279.646 631.518L254.034 619.887C225.501 606.929 199.7 588.65 178.014 566.027C152.33 539.234 133.028 506.987 121.549 471.691L120.932 469.794C109.349 434.183 106.276 396.353 111.959 359.34C118.365 317.618 135.68 278.329 162.152 245.45L163.601 243.651C186.012 215.816 214.17 193.15 246.15 177.203L250.644 174.962C282.665 158.994 317.957 150.682 353.739 150.682C378.388 150.682 402.879 154.627 426.281 162.367L429.295 163.364C449.866 170.168 469.469 179.609 487.613 191.453L493.49 195.289C516.711 210.447 537.126 229.52 553.824 251.66C577.864 283.532 593.56 320.906 599.487 360.386L599.926 363.316C604.739 395.372 602.873 428.076 594.446 459.377C585.348 493.169 568.823 524.506 546.077 551.101L545.411 551.881L545.336 551.967C517.878 583.719 483.559 608.812 444.976 625.351L430.169 631.697C419.62 636.219 407.402 631.333 402.88 620.783C398.358 610.234 403.245 598.016 413.794 593.494L428.601 587.147C450.413 577.798 470.621 565.231 488.577 549.922L467.981 506.458H244.229L222.902 551.312ZM376.957 314.366L448.285 464.893H263.993L335.392 314.734L335.392 420.607C335.392 432.085 344.697 441.389 356.175 441.389C367.652 441.389 376.957 432.085 376.957 420.607V314.366ZM375.991 539.855C375.991 528.378 366.687 519.073 355.209 519.073C343.731 519.073 334.427 528.378 334.427 539.855V672.467C334.427 683.945 343.731 693.249 355.209 693.249C366.687 693.249 375.991 683.945 375.991 672.467V539.855Z"
    fill="#F6EDE3" />
  <path fill-rule="evenodd" clip-rule="evenodd"
    d="M597.497 562.614C597.684 562.593 604.979 562.119 605.167 562.119L658.112 562.367C660.845 562.367 663.061 564.582 663.061 567.315C663.061 570.048 660.845 572.263 658.112 572.263H603.964L587.046 574.196C583.725 574.742 577.451 575.721 571.815 576.569C568.962 576.997 566.256 577.395 564.17 577.686C563.129 577.831 562.224 577.952 561.525 578.038C560.991 578.103 560.191 578.201 559.643 578.201C559.643 578.201 555.437 577.459 555.437 573.253C555.437 569.047 559.643 568.304 559.643 568.304C559.586 568.304 559.552 568.305 559.552 568.304C559.552 568.3 559.759 568.284 560.319 568.215C560.94 568.139 561.783 568.026 562.804 567.884C564.839 567.6 567.505 567.209 570.344 566.782C576.025 565.928 582.334 564.942 585.56 564.411C585.64 564.398 585.721 564.387 585.802 564.378L597.497 562.614Z"
    fill="#11962F" fill-opacity="0.48" />
  <path fill-rule="evenodd" clip-rule="evenodd"
    d="M108.187 562.4C108.001 562.378 107.813 562.368 107.626 562.368H53.1956C50.4628 562.368 48.2474 564.583 48.2474 567.316C48.2474 570.049 50.4628 572.264 53.1956 572.264H107.344L124.262 574.198C127.583 574.743 133.857 575.723 139.492 576.57C142.346 576.999 145.051 577.396 147.138 577.687C148.179 577.832 149.084 577.953 149.783 578.039C150.317 578.104 151.117 578.202 151.664 578.202C151.664 578.202 155.623 578.182 155.871 573.501C156.118 568.821 151.664 568.305 151.664 568.305C151.722 568.305 151.756 568.306 151.756 568.305C151.756 568.301 151.549 568.285 150.989 568.216C150.368 568.14 149.525 568.027 148.504 567.885C146.469 567.601 143.803 567.21 140.963 566.783C135.283 565.929 128.974 564.944 125.748 564.413C125.667 564.399 125.587 564.388 125.506 564.379L108.187 562.4Z"
    fill="#11962F" fill-opacity="0.48" />
  <path fill-rule="evenodd" clip-rule="evenodd"
    d="M187.783 630.554L196.587 617.593C196.587 617.593 199.173 613.823 195.462 611.101C191.751 608.38 188.4 612.032 188.4 612.032L179.494 625.145C179.425 625.245 179.36 625.349 179.3 625.454L170.888 640.052C170.824 640.162 170.765 640.275 170.71 640.39L162.793 656.966C162.727 657.103 162.668 657.242 162.616 657.385L156.678 673.466C156.665 673.501 156.653 673.536 156.641 673.572L151.198 689.406C151.163 689.507 151.131 689.609 151.103 689.712L148.876 697.877C148.157 700.513 149.712 703.234 152.348 703.953C154.985 704.672 157.705 703.117 158.424 700.481L160.609 692.471L165.981 676.842L171.821 661.026L179.558 644.827L187.783 630.554Z"
    fill="#11962F" fill-opacity="0.48" />
  <path fill-rule="evenodd" clip-rule="evenodd"
    d="M523.523 630.56L517.08 619.271C517.08 619.271 515.101 615.807 518.812 613.581C522.523 611.354 524.749 614.818 524.749 614.818L531.812 625.15C531.88 625.251 531.945 625.354 532.006 625.46L540.418 640.057C540.482 640.167 540.541 640.28 540.596 640.395L548.513 656.972C548.578 657.108 548.637 657.248 548.69 657.39L554.627 673.472C554.64 673.507 554.653 673.542 554.665 673.577L560.108 689.411C560.143 689.513 560.174 689.615 560.202 689.718L562.429 697.883C563.148 700.519 561.594 703.239 558.957 703.958C556.321 704.677 553.6 703.123 552.881 700.486L550.697 692.477L545.324 676.847L539.485 661.031L531.748 644.833L523.523 630.56Z"
    fill="#11962F" fill-opacity="0.48" />
  <path fill-rule="evenodd" clip-rule="evenodd"
    d="M355.765 12.1213C367.926 12.1213 377.784 21.9798 377.784 34.1408L377.784 51.9542C377.784 64.1152 367.926 73.9737 355.765 73.9737C343.604 73.9737 333.745 64.1152 333.745 51.9542L333.745 34.1408C333.745 21.9798 343.604 12.1213 355.765 12.1213Z"
    fill="#DBFF00" />
  <defs>
    <linearGradient id="paint0_linear_551_272" x1="356.086" y1="101.5" x2="356.086" y2="724"
      gradientUnits="userSpaceOnUse">
      <stop stop-color="#6CFE69" />
      <stop offset="1" stop-color="#0C3826" />
    </linearGradient>
    <linearGradient id="paint1_linear_551_272" x1="633.211" y1="620.995" x2="567.908" y2="661.969"
      gradientUnits="userSpaceOnUse">
      <stop stop-color="#FF3F3F" />
      <stop offset="1" stop-color="#802A2A" />
    </linearGradient>
    <linearGradient id="paint2_linear_551_272" x1="78.0773" y1="620.995" x2="143.381" y2="661.969"
      gradientUnits="userSpaceOnUse">
      <stop stop-color="#FF3F3F" />
      <stop offset="1" stop-color="#802A2A" />
    </linearGradient>
    <linearGradient id="paint3_linear_551_272" x1="566.486" y1="110.69" x2="497.096" y2="209.542"
      gradientUnits="userSpaceOnUse">
      <stop stop-color="#DBFF00" />
      <stop offset="1" stop-color="#29CB00" />
    </linearGradient>
    <linearGradient id="paint4_linear_551_272" x1="145.199" y1="110.516" x2="214.591" y2="209.368"
      gradientUnits="userSpaceOnUse">
      <stop stop-color="#DBFF00" />
      <stop offset="1" stop-color="#29CB00" />
    </linearGradient>
    <linearGradient id="paint5_linear_551_272" x1="335.477" y1="258.541" x2="331.023" y2="680.869"
      gradientUnits="userSpaceOnUse">
      <stop stop-color="#DBFF00" />
      <stop offset="1" stop-color="#11962F" />
    </linearGradient>
    <radialGradient id="paint6_diamond_551_272" cx="0" cy="0" r="1" gradientUnits="userSpaceOnUse"
      gradientTransform="translate(637.237 585.606) rotate(67.2002) scale(329.301 363.695)">
      <stop stop-color="#DBFF00" />
      <stop offset="1" stop-color="#86C61E" />
    </radialGradient>
    <radialGradient id="paint7_diamond_551_272" cx="0" cy="0" r="1" gradientUnits="userSpaceOnUse"
      gradientTransform="translate(73.6491 585.604) rotate(112.798) scale(329.287 363.663)">
      <stop stop-color="#DBFF00" />
      <stop offset="1" stop-color="#86C61E" />
    </radialGradient>
  </defs>
</svg>